<svg xmlns="http://www.w3.org/2000/svg" viewBox="0 0 200 200">
  <defs>
    <linearGradient id="g1" x1="0%" y1="0%" x2="100%" y2="100%">
      <stop offset="0%" style="stop-color:#667eea"/>
      <stop offset="100%" style="stop-color:#764ba2"/>
    </linearGradient>
  </defs>
  <!-- Document/Resume -->
  <rect x="40" y="30" width="120" height="140" rx="8" fill="#f8fafc" stroke="#e2e8f0" stroke-width="2"/>
  <!-- Header bar -->
  <rect x="40" y="30" width="120" height="25" rx="8" fill="url(#g1)"/>
  <rect x="48" y="38" width="40" height="8" rx="2" fill="rgba(255,255,255,0.8)"/>
  <!-- Avatar circle -->
  <circle cx="70" cy="80" r="15" fill="#e0e7ff"/>
  <circle cx="70" cy="76" r="6" fill="#818cf8"/>
  <path d="M58 90 Q70 82 82 90" fill="#818cf8"/>
  <!-- Text lines -->
  <rect x="95" y="68" width="55" height="6" rx="2" fill="#cbd5e1"/>
  <rect x="95" y="80" width="40" height="6" rx="2" fill="#e2e8f0"/>
  <!-- Content lines -->
  <rect x="50" y="110" width="100" height="5" rx="2" fill="#e2e8f0"/>
  <rect x="50" y="122" width="80" height="5" rx="2" fill="#e2e8f0"/>
  <rect x="50" y="134" width="90" height="5" rx="2" fill="#e2e8f0"/>
  <rect x="50" y="146" width="70" height="5" rx="2" fill="#e2e8f0"/>
  <!-- Checkmarks -->
  <circle cx="160" cy="115" r="12" fill="#10b981"/>
  <path d="M154 115 L158 119 L166 111" stroke="white" stroke-width="2.5" fill="none" stroke-linecap="round" stroke-linejoin="round"/>
</svg>
