<svg viewBox="0 0 128 128" xmlns="http://www.w3.org/2000/svg">
  <path fill="#F7DF1E" d="M2 2h124v124H2z"/>
  <path d="M89.5 108.3c3.5 5.7 8.1 9.9 16.1 9.9 6.8 0 11.1-3.4 11.1-8 0-5.6-4.5-7.5-12-10.8l-4.1-1.8c-11.9-5.1-19.8-11.4-19.8-24.8 0-12.4 9.4-21.8 24.2-21.8 10.5 0 18.1 3.7 23.5 13.2l-12.9 8.3c-2.8-5.1-5.9-7.1-10.6-7.1-4.8 0-7.9 3.1-7.9 7.1 0 5 3.1 7 10.2 10.1l4.1 1.8c14.1 6 21.9 12.2 21.9 26 0 14.9-11.7 23.1-27.4 23.1-15.4 0-25.3-7.3-30.2-16.9l13.8-8.3zm-54.2 1.7c2.6 4.6 5 8.5 10.6 8.5 5.4 0 8.9-2.1 8.9-10.3V52.7h17.1v55.8c0 17-10 24.7-24.5 24.7-13.1 0-20.7-6.8-24.6-15l12.5-8.2z"/>
</svg>
