<svg viewBox="0 0 128 128" xmlns="http://www.w3.org/2000/svg">
  <path fill="#83CD29" d="M114.3 30.4L67.7 3.5c-2.3-1.3-5.1-1.3-7.4 0L13.7 30.4C11.4 31.8 10 34.3 10 37v53.5c0 2.7 1.4 5.2 3.7 6.6l46.6 26.9c2.3 1.3 5.1 1.3 7.4 0l46.6-26.9c2.3-1.4 3.7-3.9 3.7-6.6V37c0-2.7-1.4-5.2-3.7-6.6z"/>
  <path fill="#404137" d="M64 89.3c-1.1 0-2.2-.3-3.2-.8L47.6 80c-1.5-.8-.8-1.1-.3-1.3 2.7-.9 3.2-1.1 6.1-2.7.3-.2.7-.1 1 .1l10 5.9c.4.2.9.2 1.2 0l38.8-22.4c.4-.2.6-.6.6-1V36.2c0-.4-.2-.8-.6-1L65.6 12.8c-.4-.2-.9-.2-1.2 0L25.6 35.2c-.4.2-.6.6-.6 1v44.8c0 .4.2.8.6 1l10.6 6.1c5.8 2.9 9.3-.5 9.3-3.9V40.9c0-.6.5-1.1 1.1-1.1h4.8c.6 0 1.1.5 1.1 1.1v43.3c0 7.6-4.1 12-11.3 12-2.2 0-4 0-8.8-2.4l-10.2-5.9C20 86.6 18.5 84 18.5 81.2V36.4c0-2.8 1.5-5.4 3.9-6.8l39-22.5c2.4-1.3 5.5-1.3 7.8 0l38.8 22.5c2.4 1.4 3.9 4 3.9 6.8v44.8c0 2.8-1.5 5.4-3.9 6.8L69.3 110.5c-1 .6-2.1.8-3.2.8h-.1z"/>
  <path fill="#404137" d="M80.3 79.3c-17 0-20.5-7.8-20.5-14.3 0-.6.5-1.1 1.1-1.1h4.9c.5 0 1 .4 1.1.9.7 5 2.9 7.5 12.8 7.5 7.9 0 11.2-1.8 11.2-5.9 0-2.4-.9-4.2-13.2-5.4-10.3-1-16.6-3.3-16.6-11.5 0-7.6 6.4-12.1 17.1-12.1 12 0 18 4.2 18.7 13.1 0 .3-.1.6-.3.8-.2.2-.5.4-.8.4h-4.9c-.5 0-1-.4-1.1-.8-.8-3.5-2.7-4.6-12-4.6-8.8 0-9.8 3.1-9.8 5.4 0 2.8 1.2 3.6 12.8 5.2 11.5 1.6 17.1 3.8 17.1 11.6 0 8.2-6.9 12.8-18.8 12.8z"/>
</svg>
