<svg viewBox="0 0 128 128" xmlns="http://www.w3.org/2000/svg">
  <path fill="#10A37F" d="M117.2 54c2.3-6.9 2-14.3-1-20.9-4.4-9.8-13.8-16.4-24.5-17.3-5.2-6.5-13-10.6-21.5-11.4-12.6-1.2-24.6 5.2-30.8 16.2-7.1 1.2-13.6 4.8-18.3 10.2-7.3 8.4-9.4 20-5.4 30.2-2.3 6.9-2 14.3 1 20.9 4.4 9.8 13.8 16.4 24.5 17.3 5.2 6.5 13 10.6 21.5 11.4 12.6 1.2 24.6-5.2 30.8-16.2 7.1-1.2 13.6-4.8 18.3-10.2 7.3-8.4 9.4-20 5.4-30.2zM70.2 104.1c-6.2 0-12.1-2.5-16.5-6.8l.7-.4 27.4-15.8c1.4-.8 2.3-2.3 2.3-4V49.4l11.6 6.7c.1.1.2.2.2.3v32c0 8.6-6.9 15.6-15.5 15.7h-.2zM25.4 84.9c-3.1-5.4-4.2-11.7-3.1-17.8l.7.4 27.4 15.8c1.4.8 3.1.8 4.5 0l33.4-19.3v13.4c0 .2-.1.3-.2.4l-27.7 16c-7.4 4.3-17 1.8-21.3-5.6l-.1-.1-13.6-3.2zm-6.1-48.4c3.1-5.4 8-9.4 13.9-11.4v32.6c0 1.6.8 3.1 2.3 4l33.4 19.3-11.6 6.7c-.1.1-.3.1-.4 0L29.1 71.6c-7.4-4.3-10-13.8-5.8-21.2l-4-13.9zm75.3 17.5L61.2 34.7l11.6-6.7c.1-.1.3-.1.4 0l27.7 16c7.5 4.3 10 14 5.7 21.4v.1c-3.1 5.3-8 9.3-13.8 11.3V44.1c0-1.6-.9-3.2-2.3-4l.1.1-.1-.2zM99.3 49l-.7-.4L71.2 32.8c-1.4-.8-3.1-.8-4.5 0L33.2 52.1V38.7c0-.2.1-.3.2-.4l27.7-16c7.5-4.3 17-1.7 21.4 5.7 3.1 5.4 4.2 11.8 3.1 18l13.7 2.9zm-60 23.5l-11.6-6.7c-.1-.1-.2-.2-.2-.3V33.4c0-8.6 7-15.6 15.6-15.6 6.2 0 12 3.8 14.4 9.5l-.7.4-27.4 15.8c-1.4.8-2.3 2.3-2.3 4l.2 25zm6.3-13.5l14.9-8.6 14.9 8.6v17.1l-14.9 8.6-14.9-8.6V59z"/>
</svg>
