<svg viewBox="0 0 128 128" xmlns="http://www.w3.org/2000/svg">
  <linearGradient id="py-a" x1="70.3%" y1="12.2%" x2="30.4%" y2="84.2%">
    <stop offset="0%" stop-color="#5A9FD4"/>
    <stop offset="100%" stop-color="#306998"/>
  </linearGradient>
  <linearGradient id="py-b" x1="18.9%" y1="18.2%" x2="90.4%" y2="79.7%">
    <stop offset="0%" stop-color="#FFD43B"/>
    <stop offset="100%" stop-color="#FFE873"/>
  </linearGradient>
  <path fill="url(#py-a)" d="M63.4 2.5c-33.3 0-31.2 14.4-31.2 14.4v15h31.7v4.5H21.4S2 33.7 2 67.4s17 32.5 17 32.5h10.1V83.6s-.5-17 16.8-17h28.9s16.2.3 16.2-15.7V20.9S93.5 2.5 63.4 2.5zM47.2 13.3c3 0 5.4 2.4 5.4 5.4s-2.4 5.4-5.4 5.4-5.4-2.4-5.4-5.4 2.4-5.4 5.4-5.4z"/>
  <path fill="url(#py-b)" d="M64.6 125.5c33.3 0 31.2-14.4 31.2-14.4v-15H64.1v-4.5h42.5S126 94.3 126 60.6s-17-32.5-17-32.5H98.9v16.3s.5 17-16.8 17H53.2s-16.2-.3-16.2 15.7v30S34.5 125.5 64.6 125.5zm16.2-10.8c-3 0-5.4-2.4-5.4-5.4s2.4-5.4 5.4-5.4 5.4 2.4 5.4 5.4-2.4 5.4-5.4 5.4z"/>
</svg>
