<svg viewBox="0 0 128 128" xmlns="http://www.w3.org/2000/svg">
  <path fill="#38bdf8" d="M64 29.4c-17.1 0-27.8 8.5-32 25.6 6.4-8.5 13.9-11.7 22.4-9.6 4.9 1.2 8.4 4.8 12.2 8.8 6.3 6.5 13.5 14 29.4 14 17.1 0 27.8-8.5 32-25.6-6.4 8.5-13.9 11.7-22.4 9.6-4.9-1.2-8.4-4.8-12.2-8.8-6.3-6.5-13.5-14-29.4-14zM32 68.2C14.9 68.2 4.2 76.7 0 93.8c6.4-8.5 13.9-11.7 22.4-9.6 4.9 1.2 8.4 4.8 12.2 8.8 6.3 6.5 13.5 14 29.4 14 17.1 0 27.8-8.5 32-25.6-6.4 8.5-13.9 11.7-22.4 9.6-4.9-1.2-8.4-4.8-12.2-8.8-6.3-6.5-13.5-14-29.4-14z"/>
</svg>
