<svg viewBox="0 0 48 48" fill="none" xmlns="http://www.w3.org/2000/svg">
  <rect x="8" y="8" width="14" height="14" rx="2" fill="none" stroke="currentColor" stroke-width="2"/>
  <rect x="26" y="8" width="14" height="14" rx="2" fill="none" stroke="currentColor" stroke-width="2"/>
  <rect x="8" y="26" width="14" height="14" rx="2" fill="none" stroke="currentColor" stroke-width="2"/>
  <rect x="26" y="26" width="14" height="14" rx="2" fill="none" stroke="currentColor" stroke-width="2"/>
  <path d="M13 13l2 2m0 0l2-2m-2 2v-2" stroke="currentColor" stroke-width="2" stroke-linecap="round" stroke-linejoin="round"/>
  <path d="M31 13l2 2m0 0l2-2m-2 2v-2" stroke="currentColor" stroke-width="2" stroke-linecap="round" stroke-linejoin="round"/>
  <path d="M13 31l2 2m0 0l2-2m-2 2v-2" stroke="currentColor" stroke-width="2" stroke-linecap="round" stroke-linejoin="round"/>
  <circle cx="33" cy="33" r="4" fill="currentColor" opacity="0.2"/>
  <path d="M31 33l2 2 3-3" stroke="currentColor" stroke-width="2" stroke-linecap="round" stroke-linejoin="round"/>
</svg>
