<svg viewBox="0 0 128 128" xmlns="http://www.w3.org/2000/svg">
  <path fill-rule="evenodd" clip-rule="evenodd" fill="#3A4D54" d="M73 39.1h12.5v11.6H73zm-14.3 0h12.5v11.6H58.7zM44.5 39.1H57v11.6H44.5zm-14.3 0h12.5v11.6H30.2zm-14.3 0h12.5v11.6H15.9zm14.3-12.8h12.5v11.6H30.2zm14.3 0H57v11.6H44.5zm14.2 0h12.5v11.6H58.7zm0-12.7h12.5v11.6H58.7z"/>
  <path fill-rule="evenodd" clip-rule="evenodd" fill="#3A4D54" d="M125.5 52c-1.5-1-5-2.8-9.2-2.4-1-6.2-5.2-11.6-10.2-15l-2.1-1.4-1.4 2c-1.8 2.7-3.1 5.8-3.5 9-.6 4.8.4 9.4 2.8 13.3-2 1.1-4.3 2-6.2 2.4-3 .7-6.2 1.1-9.3 1.1H.6l-.2 2c-.5 6.3.3 12.7 2.6 18.6 2.8 7.1 7 12.4 12.5 15.6 6.2 3.7 16.3 5.8 27.8 5.8 5.2 0 10.5-.5 15.7-1.4 7.2-1.3 14.2-3.7 20.5-7.2 5.2-2.9 9.9-6.6 13.9-11 6.6-7.4 10.6-15.7 13.5-23.3h1.2c7.3 0 11.8-2.9 14.3-5.4 1.7-1.6 3-3.6 3.9-5.8l.5-1.6-1.3-.8z"/>
</svg>
