<svg viewBox="0 0 128 128" xmlns="http://www.w3.org/2000/svg">
  <path fill="#F34F29" d="M124.7 58.4L69.6 3.3c-3.1-3.1-8.2-3.1-11.4 0l-11.4 11.4 14.5 14.5c3.4-1.1 7.2-.4 9.9 2.3 2.7 2.7 3.4 6.6 2.2 10l14 14c3.4-1.2 7.3-.5 10 2.2 3.8 3.8 3.8 9.9 0 13.7-3.8 3.8-9.9 3.8-13.7 0-2.8-2.8-3.5-7-2-10.4l-13-13-.1 34.3c.9.4 1.8 1 2.6 1.8 3.8 3.8 3.8 9.9 0 13.7-3.8 3.8-9.9 3.8-13.7 0-3.8-3.8-3.8-9.9 0-13.7 1-1 2.1-1.7 3.4-2.2V44.2c-1.2-.5-2.4-1.2-3.4-2.2-2.9-2.9-3.5-7.1-1.9-10.6L41.2 17.2 3.3 55.1c-3.1 3.1-3.1 8.2 0 11.4l55.1 55.1c3.1 3.1 8.2 3.1 11.4 0l54.9-54.9c3.1-3.1 3.1-8.2 0-11.3z"/>
</svg>
