<svg viewBox="0 0 128 128" xmlns="http://www.w3.org/2000/svg">
  <path fill="#3178c6" d="M2 63.91v62.5h125v-125H2zm100.73-5a15.56 15.56 0 017.82 4.5 20.58 20.58 0 013 4c0 .16-5.4 3.81-8.69 5.85-.12.08-.6-.44-1.13-1.23a6.55 6.55 0 00-5.77-3.14c-3.72-.22-6.13 1.89-6.13 5.28a4.7 4.7 0 00.56 2.41c.74 1.58 2.12 2.55 6.36 4.45 7.81 3.5 11.15 5.8 13.51 9.29a18.14 18.14 0 011.68 14.17c-2.42 8.44-9.69 13-20.28 12.72a23.4 23.4 0 01-12.24-3.22 21.08 21.08 0 01-4.29-3.73c.06-.11 1.74-1.18 3.75-2.37l3.64-2.17 1 1.43a12.77 12.77 0 0010.67 5.35c4.39.11 7.22-1.86 7.22-5.05a4.7 4.7 0 00-.68-2.55c-.89-1.38-2.58-2.45-7.3-4.61-5.4-2.47-7.73-4-9.95-6.53a15 15 0 01-2.66-6.52 23.91 23.91 0 01-.17-7.06c1.82-7.78 8.14-12.44 17-12.5a23 23 0 019.73 1.72zm-29.72 8.08l.05 5.16H54.17v46.34H42.84V72.15H23.91v-5a49.79 49.79 0 01.13-5.17c.06-.06 12-.09 26.42-.09h26.27z"/>
</svg>
