<svg viewBox="0 0 128 128" xmlns="http://www.w3.org/2000/svg">
  <defs>
    <linearGradient id="vite-a" x1="6%" y1="32.4%" x2="100%" y2="67.6%">
      <stop offset="0%" stop-color="#41D1FF"/>
      <stop offset="100%" stop-color="#BD34FE"/>
    </linearGradient>
    <linearGradient id="vite-b" x1="50%" y1="0%" x2="50%" y2="100%">
      <stop offset="0%" stop-color="#FFBD4F"/>
      <stop offset="100%" stop-color="#FF9100"/>
    </linearGradient>
  </defs>
  <path d="M124.8 19.6L67.5 123.5c-1.2 2.2-4.4 2.2-5.6 0L3.2 19.6c-1.3-2.4.6-5.3 3.3-4.9l58.1 9.3c.4.1.9.1 1.3 0l55.6-9.3c2.7-.4 4.6 2.5 3.3 4.9z" fill="url(#vite-a)"/>
  <path d="M91.5 1.5L48.9 9.7c-.7.1-1.2.7-1.2 1.4l-3.2 53.4c-.1 1.1 1 1.9 2 1.6l12.4-3.5c1.1-.3 2.1.6 1.9 1.8l-3.7 18.6c-.2 1.1.8 2.1 1.9 1.8l7.7-2.2c1.1-.3 2.1.6 1.9 1.8l-5.8 28.7c-.3 1.6 1.8 2.4 2.7 1l.6-.9 33.3-66.6c.6-1.1-.4-2.4-1.6-2.2l-12.8 2.4c-1.2.2-2.1-1-1.7-2.1l9.3-30.5c.4-1.2-.5-2.3-1.7-2.1z" fill="url(#vite-b)"/>
</svg>
